<?xml version="1.0" standalone="no"?>
<!DOCTYPE svg PUBLIC "-//W3C//DTD SVG 20010904//EN"
 "http://www.w3.org/TR/2001/REC-SVG-20010904/DTD/svg10.dtd">
<svg version="1.0" xmlns="http://www.w3.org/2000/svg"
 width="512.000000pt" height="512.000000pt" viewBox="0 0 512.000000 512.000000"
 preserveAspectRatio="xMidYMid meet">
<metadata>
Created by potrace 1.14, written by Peter Selinger 2001-2017
</metadata>
<g transform="translate(0.000000,512.000000) scale(0.100000,-0.100000)"
fill="#000000" stroke="none">
<path d="M2315 5109 c-800 -83 -1501 -518 -1927 -1196 -487 -774 -516 -1777
-75 -2578 200 -364 487 -676 841 -913 238 -159 600 -311 876 -366 214 -43 295
-51 530 -51 236 0 333 10 532 51 880 184 1615 842 1898 1702 92 278 125 491
125 802 0 301 -32 513 -116 775 -124 390 -330 728 -622 1024 -399 404 -893
653 -1462 737 -123 18 -478 26 -600 13z m590 -143 c803 -123 1474 -609 1828
-1324 119 -239 194 -479 234 -742 24 -160 24 -520 0 -680 -107 -697 -486
-1298 -1062 -1682 -139 -93 -396 -222 -541 -272 -276 -95 -496 -130 -804 -130
-255 0 -380 14 -596 69 -329 84 -651 244 -925 460 -95 75 -299 279 -374 374
-221 280 -382 608 -464 942 -52 214 -65 330 -65 579 -1 241 12 354 60 559 104
444 347 870 675 1186 410 395 909 620 1504 679 84 8 434 -4 530 -18z"/>
<path d="M655 3468 c-3 -7 -4 -420 -3 -918 l3 -905 208 -3 207 -2 1 432 c1
432 1 433 19 393 11 -22 90 -217 177 -433 l157 -393 145 3 145 3 165 410 166
410 3 -412 2 -413 210 0 210 0 0 920 0 920 -220 0 c-199 0 -220 -2 -229 -17
-5 -10 -107 -268 -226 -573 -120 -305 -220 -558 -224 -562 -3 -4 -107 253
-231 570 l-226 577 -227 3 c-177 2 -229 0 -232 -10z m398 -115 c7 -16 125
-315 262 -666 137 -350 252 -634 256 -630 4 5 123 304 265 666 l258 657 138 0
138 0 0 -820 0 -820 -110 0 -110 0 0 617 c0 339 -4 613 -8 607 -5 -5 -119
-282 -253 -616 l-244 -608 -76 0 -77 0 -232 578 c-128 317 -242 601 -253 630
-11 28 -24 52 -28 52 -5 0 -9 -284 -9 -630 l0 -631 -107 3 -108 3 -3 805 c-1
443 0 811 3 818 3 9 42 12 144 12 l140 0 14 -27z"/>
<path d="M2650 2560 l0 -920 210 0 210 0 2 432 3 432 174 -432 174 -433 144 3
145 3 162 402 c89 222 165 406 169 410 4 3 7 -179 7 -406 l0 -411 208 2 207 3
0 915 0 915 -221 3 -220 2 -219 -557 c-120 -307 -223 -568 -230 -581 -10 -20
-36 41 -237 555 l-226 578 -231 3 -231 2 0 -920z m651 156 c142 -362 260 -661
263 -664 3 -2 10 8 16 24 6 16 122 310 257 654 135 344 248 631 250 638 4 9
38 12 142 10 l136 -3 0 -815 0 -815 -107 -3 -108 -3 0 611 c0 335 -3 610 -8
610 -4 0 -118 -273 -253 -607 l-245 -608 -78 0 -78 0 -252 627 c-139 345 -255
631 -259 635 -4 3 -7 -280 -7 -630 l0 -637 -110 0 -110 0 0 820 0 821 147 -3
146 -3 258 -659z"/>
</g>
</svg>
