<?xml version="1.0" standalone="no"?>
<!DOCTYPE svg PUBLIC "-//W3C//DTD SVG 20010904//EN"
 "http://www.w3.org/TR/2001/REC-SVG-20010904/DTD/svg10.dtd">
<svg version="1.0" xmlns="http://www.w3.org/2000/svg"
 width="100.000000pt" height="100.000000pt" viewBox="0 0 100.000000 100.000000"
 preserveAspectRatio="xMidYMid meet">
<metadata>
Created by potrace 1.14, written by Peter Selinger 2001-2017
</metadata>
<g transform="translate(0.000000,100.000000) scale(0.100000,-0.100000)"
fill="#000000" stroke="none">
<path d="M644 984 c-38 -16 -82 -66 -90 -102 -4 -15 -18 -51 -33 -80 l-26 -54
23 -18 c14 -12 22 -29 22 -50 0 -37 38 -80 72 -80 18 0 14 -5 -17 -19 -31 -14
-48 -16 -74 -9 -25 7 -45 5 -77 -7 -24 -9 -44 -21 -44 -26 0 -4 -16 3 -36 16
-39 26 -68 31 -106 16 -22 -8 -23 -7 -26 59 -3 63 8 95 23 70 10 -17 81 -11
105 8 20 16 21 24 15 62 -14 82 -82 113 -170 76 -54 -23 -129 -140 -170 -265
-27 -84 -9 -211 31 -211 8 0 39 -22 68 -50 83 -78 146 -96 231 -64 22 8 43 16
46 17 4 1 8 -1 8 -5 4 -18 30 -88 51 -132 12 -26 25 -67 28 -89 10 -55 36 -57
40 -5 2 21 -1 45 -5 53 -6 11 2 38 26 87 34 67 36 78 38 178 1 59 -2 121 -7
138 -13 47 6 49 30 2 26 -50 59 -72 118 -77 65 -6 110 19 142 79 25 46 25 46
54 31 21 -11 31 -12 40 -3 14 14 -23 47 -63 56 -47 10 -51 13 -51 35 0 11 14
53 31 92 27 60 31 79 26 124 -6 58 -31 100 -79 135 -38 27 -145 34 -194 12z
m180 -51 c30 -22 47 -56 52 -109 4 -31 -2 -56 -26 -105 -36 -77 -41 -148 -11
-156 17 -4 18 -9 9 -34 -29 -83 -141 -93 -188 -17 -25 41 -25 48 0 48 13 0 20
7 20 20 0 25 -34 60 -58 60 -28 0 -42 21 -42 62 0 25 -6 40 -17 47 -17 9 -17
12 -1 43 9 18 22 49 28 70 13 42 52 85 83 92 42 9 126 -2 151 -21z m-512 -125
c24 -19 31 -65 12 -72 -29 -11 -44 -6 -44 14 0 15 -7 20 -29 20 -46 0 -56 -22
-57 -124 -1 -50 -5 -106 -8 -123 -10 -45 8 -49 51 -14 47 39 73 39 118 0 l36
-32 28 27 c33 32 88 43 113 24 13 -10 19 -34 24 -98 7 -92 -6 -181 -36 -239
l-17 -34 -17 43 c-9 23 -19 62 -23 86 -3 25 -9 47 -13 49 -5 3 -34 -9 -65 -25
-89 -47 -139 -39 -215 35 -25 24 -57 48 -72 54 -22 8 -28 18 -34 58 -9 59 5
115 52 211 48 98 100 152 146 152 19 0 41 -6 50 -12z"/>
<path d="M205 430 c-10 -17 13 -48 46 -59 60 -21 113 -9 138 31 20 32 -2 45
-35 19 -34 -26 -74 -27 -107 -1 -29 23 -33 24 -42 10z"/>
</g>
</svg>
